# xmcd CD database file
#
# Track frame offsets:
#	150
#	15225
#	32395
#	43380
#	72600
#	92120
#	107750
#	133753
#	146564
#	168477
#	211978
#	242455
#
# Disc length: 3541 seconds
#
# Revision: 0
# Processed by: cddbd v1.5.2PL0 Copyright (c) Steve Scherf et al.
# Submitted via: CDex 1.95
#
DISCID=a50dd30c
DTITLE=Various Artist - Let's do it_60 years of Verve Records - Disc 3
DYEAR=2016
DGENRE=Jazz
TTITLE0=Trombone Shorty - Hurricane Season
TTITLE1=Count Basic - April in Paris
TTITLE2=Anita O'Dau - You're the top
TTITLE3=Regina Carter - Oh, Lady, Be Good!
TTITLE4=Joe Henderson - I love you porgy
TTITLE5=Russell Malone - Loved ones
TTITLE6=Wayne Shorter and Herbie Hancock - Aung san suu kyi
TTITLE7=Ella Fitzgerald - Manhattan
TTITLE8=Wes Montgomery - Bumpin' on sunset
TTITLE9=Sonny Stitt and Gene Ammons - Counter Clockwise
TTITLE10=Mark Whitfield - Businessman's bounce
TTITLE11=Roy Eldridge - Bugle call ragg
EXTD=YEAR: 2016
EXTT0=
EXTT1=
EXTT2=
EXTT3=
EXTT4=
EXTT5=
EXTT6=
EXTT7=
EXTT8=
EXTT9=
EXTT10=
EXTT11=
PLAYORDER=
